<svg xmlns="http://www.w3.org/2000/svg" aria-hidden="true" style="position:absolute;width:0;height:0;overflow:hidden"><defs><symbol id="icon-client-1" viewBox="0 0 31 16"><path d="m12.727 4.182 1.274 1.214-2.365-.001v5.889h6.182V9.032l1.273 1.213V4.182h-6.364zm5.035 4.707-3.613-3.442h3.613v3.442zm-1.121 1.533h-4.026V6.461h.285v3.693h3.741v.268zm-3.224 1.953-.15-.309h-.124l.217.408v.238h.112v-.238l.218-.408h-.123l-.15.309zm.554-.309h.027l.244.646h-.117l-.052-.151h-.25l-.052.151h-.117l.243-.646h.075zm-.119.407h.189l-.095-.274-.095.274zm.781-.107-.014-.018c-.017-.022-.029-.043-.039-.063s-.014-.042-.014-.064c0-.034.007-.063.021-.087s.034-.043.059-.056a.192.192 0 0 1 .089-.02c.033 0 .061.007.085.02a.138.138 0 0 1 .075.123c0 .02-.004.039-.011.056s-.018.032-.031.046a.355.355 0 0 1-.045.04l-.045.033.128.151a.26.26 0 0 0 .027-.121h.092c0 .031-.003.061-.009.089s-.016.054-.029.078c-.005.01-.012.019-.018.029l.095.112h-.124l-.038-.044a.264.264 0 0 1-.166.053c-.043 0-.08-.008-.111-.024s-.056-.037-.073-.065a.177.177 0 0 1-.009-.164.213.213 0 0 1 .045-.056.525.525 0 0 1 .06-.048zm.053.065-.013.01c-.016.013-.027.025-.035.037s-.012.022-.015.032c-.002.01-.004.018-.004.026 0 .019.004.036.012.051s.02.028.036.037a.116.116 0 0 0 .058.013.16.16 0 0 0 .071-.016.181.181 0 0 0 .033-.02l-.144-.169zm.026-.118.04-.027c.019-.012.032-.025.04-.036s.012-.027.012-.045a.065.065 0 0 0-.068-.063c-.015 0-.028.004-.038.011s-.018.016-.024.028a.092.092 0 0 0 .002.079.246.246 0 0 0 .028.044l.007.009zm1.13.189h-.111c-.003.028-.01.052-.02.071s-.025.034-.045.044a.17.17 0 0 1-.077.015c-.026 0-.048-.005-.067-.016s-.034-.025-.046-.044c-.012-.019-.021-.042-.027-.068s-.008-.056-.008-.089v-.055c0-.034.003-.065.009-.091s.016-.05.029-.068c.013-.018.029-.032.048-.042s.041-.014.067-.014c.031 0 .056.005.075.016s.034.025.044.045c.01.02.017.044.02.071h.111c-.004-.043-.017-.082-.036-.115s-.047-.06-.083-.079a.274.274 0 0 0-.13-.028c-.041 0-.077.007-.11.021s-.06.035-.083.062c-.023.027-.041.059-.053.096s-.018.08-.018.126v.054c0 .046.006.088.018.126s.03.07.052.096a.235.235 0 0 0 .19.082c.052 0 .096-.009.133-.028s.065-.045.085-.078a.264.264 0 0 0 .036-.113zm.617-.095v-.036c0-.049-.007-.092-.02-.131s-.031-.072-.055-.099c-.024-.028-.052-.048-.085-.063s-.069-.022-.109-.022c-.04 0-.076.007-.109.022s-.061.035-.085.063c-.024.027-.042.06-.055.099s-.02.082-.02.131v.036c0 .049.007.093.02.131s.032.072.056.099c.024.027.052.048.085.063s.069.021.109.021c.04 0 .076-.007.109-.021s.061-.035.084-.063c.024-.027.042-.06.055-.099s.019-.083.019-.131zm-.111-.036v.036c0 .036-.004.068-.011.096s-.017.051-.03.071c-.013.019-.03.033-.049.043s-.041.014-.066.014-.046-.005-.066-.014-.036-.024-.05-.043c-.014-.019-.024-.043-.031-.071s-.011-.06-.011-.096v-.036c0-.036.004-.068.011-.095s.017-.051.031-.07c.014-.019.03-.033.049-.043s.041-.015.066-.015.047.005.066.015c.02.009.036.024.049.043s.024.042.031.07a.387.387 0 0 1 .011.095z"/></symbol><symbol id="icon-client-2" viewBox="0 0 31 16"><path d="M14.93 3.988h-.025a4.268 4.268 0 0 0-.115-.004h-.083a4.03 4.03 0 0 0-.219.006h-.017a5.14 5.14 0 0 0-1.912.488l-.079.038v4.026l.184-.062a7.57 7.57 0 0 1 .511-.152 6.247 6.247 0 0 1 1.472-.196v.529c-.066 0-.13.002-.194.006h-.015a5.858 5.858 0 0 0-1.132.174c-.47.118-.923.294-1.349.526V4.204a5.412 5.412 0 0 1 1.415-.576c.436-.113.884-.17 1.334-.172h.078c.093.002.184.006.269.013.224.016.447.051.665.106v.521a4.12 4.12 0 0 0-.644-.097l-.013-.001c-.045-.004-.09-.008-.132-.008zm.916.532c.115.009.235.013.356.013a5.716 5.716 0 0 0 1.402-.18c.47-.118.923-.295 1.349-.526v5.071a5.419 5.419 0 0 1-1.416.576 5.46 5.46 0 0 1-1.334.172 4.06 4.06 0 0 1-1.012-.119V4.423a4.275 4.275 0 0 0 .655.098zm2.581.04-.184.062a6.252 6.252 0 0 1-2.376.339l-.147-.01v4.141l.126.011c.117.01.237.015.359.015.406-.002.81-.054 1.204-.156.324-.081.639-.194.941-.338l.079-.038V4.559zM12.316 11.13a.283.283 0 0 0-.205-.083.298.298 0 0 0-.21.083.296.296 0 0 0-.08.206v.69a.323.323 0 0 0 .027.141.246.246 0 0 0 .164.141.4.4 0 0 0 .103.014.293.293 0 0 0 .285-.29v-.077h-.18v.061a.14.14 0 0 1-.011.061.116.116 0 0 1-.026.039.12.12 0 0 1-.076.026c-.016.002-.032-.001-.047-.007s-.028-.017-.037-.03a.167.167 0 0 1-.024-.092v-.643a.215.215 0 0 1 .022-.103c.009-.015.023-.026.038-.034s.033-.01.05-.008c.016-.001.031.003.045.009s.026.017.035.029c.02.026.031.059.03.092v.06h.178v-.07a.336.336 0 0 0-.022-.121.287.287 0 0 0-.06-.097zM13.387 11.122a.32.32 0 0 0-.313-.057.28.28 0 0 0-.165.153.324.324 0 0 0-.026.134v.662a.325.325 0 0 0 .026.135c.016.036.04.067.07.092a.307.307 0 0 0 .311.058c.036-.013.069-.033.098-.058s.052-.057.068-.092a.316.316 0 0 0 .026-.135v-.662a.31.31 0 0 0-.094-.231zm-.084.892a.115.115 0 0 1-.036.096.133.133 0 0 1-.17 0 .115.115 0 0 1-.036-.096v-.662a.115.115 0 0 1 .036-.096.133.133 0 0 1 .17 0 .115.115 0 0 1 .036.096v.662zM14.794 12.309v-1.252h-.173l-.228.663h-.003l-.23-.663h-.172v1.252h.179v-.762h.003l.175.539h.089l.177-.539h.003v.762h.179zM15.811 11.144a.248.248 0 0 0-.101-.068.383.383 0 0 0-.13-.019h-.266v1.253h.178v-.489h.092a.32.32 0 0 0 .161-.034.265.265 0 0 0 .098-.096.283.283 0 0 0 .041-.109.969.969 0 0 0-.007-.321.271.271 0 0 0-.066-.115zm-.092.382a.146.146 0 0 1-.017.065.098.098 0 0 1-.046.044.185.185 0 0 1-.084.016h-.081v-.426h.092a.169.169 0 0 1 .08.016.11.11 0 0 1 .042.046c.01.022.015.046.016.07v.083c0 .029.002.059 0 .086h-.002zM16.656 11.056h-.146l-.276 1.252h.178l.052-.269h.243l.052.269h.178l-.283-1.252zm-.165.813.088-.454h.003l.087.454h-.178zM17.809 11.811h-.003l-.27-.755h-.172v1.252h.178v-.753h.004l.273.753h.168v-1.252h-.178v.755zM18.9 11.056l-.144.498h-.004l-.143-.498h-.189l.245.723v.529h.179v-.529l.245-.723H18.9zM11.818 12.663h.086v.241h.058v-.241h.086v-.049h-.23v.049zM12.541 12.613l-.113.291h.062l.024-.066h.116l.025.066h.063l-.115-.291h-.062zm-.009.176.04-.108.04.108h-.079zM13.256 12.797h.067v.037a.117.117 0 0 1-.069.025c-.012.001-.023-.002-.034-.006s-.02-.012-.027-.021a.128.128 0 0 1-.022-.076c0-.065.028-.097.084-.097.015-.001.029.002.041.011s.021.021.024.035l.057-.011c-.012-.057-.053-.086-.123-.086a.148.148 0 0 0-.102.037c-.015.014-.026.032-.033.051s-.01.04-.009.061a.159.159 0 0 0 .037.109c.014.015.031.026.051.033s.039.01.06.009a.173.173 0 0 0 .123-.046v-.115h-.126v.049zM13.986 12.613h-.059v.291h.204v-.049h-.145v-.241zM14.603 12.613h-.059v.291h.059v-.291zM15.207 12.807l-.119-.194h-.057v.291h.055v-.19l.117.19h.058v-.291h-.054v.194zM15.752 12.776h.145v-.049h-.145v-.064h.156v-.049h-.215v.291h.221v-.049h-.162v-.079zM17.075 12.728h-.115v-.115h-.058v.291h.058v-.127h.115v.127h.058v-.291h-.058v.115zM17.624 12.776h.145v-.049h-.145v-.064h.156v-.049h-.215v.291h.22v-.049h-.162v-.079zM18.368 12.776c.051-.008.076-.035.076-.081.001-.012 0-.025-.005-.036s-.013-.021-.023-.028a.167.167 0 0 0-.085-.017h-.123v.291h.059v-.122h.011a.074.074 0 0 1 .036.006.06.06 0 0 1 .021.021l.063.092h.07l-.035-.057a.215.215 0 0 0-.064-.07zm-.059-.04h-.043v-.073h.046c.02-.002.04.001.059.007.004.004.008.008.01.014s.003.011.003.017c0 .006-.002.011-.004.016s-.007.009-.011.013a.168.168 0 0 1-.059.007zM18.929 12.776h.145v-.049h-.145v-.064h.156v-.049h-.215v.291h.221v-.049h-.162v-.079z"/></symbol><symbol id="icon-client-3" viewBox="0 0 31 16"><path d="m12.511 11.859.008.002.007.004.04.038a.331.331 0 0 1-.113.072.455.455 0 0 1-.16.026.427.427 0 0 1-.151-.024.308.308 0 0 1-.186-.173.347.347 0 0 1 .002-.269.317.317 0 0 1 .198-.173.474.474 0 0 1 .299-.002c.04.015.076.035.108.06l-.034.04c-.002.003-.005.005-.009.007s-.009.003-.014.003a.042.042 0 0 1-.015-.004l-.018-.011-.025-.014a.343.343 0 0 0-.251-.01.239.239 0 0 0-.144.132.278.278 0 0 0 0 .214.22.22 0 0 0 .056.08c.023.022.051.039.083.05s.068.017.103.017c.02 0 .041-.001.061-.003a.23.23 0 0 0 .093-.029.35.35 0 0 0 .04-.027.032.032 0 0 1 .019-.007zM13.67 11.669a.323.323 0 0 1-.027.133c-.016.039-.042.074-.076.104s-.074.053-.119.068a.497.497 0 0 1-.305 0c-.044-.015-.085-.039-.118-.068s-.059-.066-.076-.105a.344.344 0 0 1 0-.267.31.31 0 0 1 .194-.171.482.482 0 0 1 .305 0c.045.015.085.039.118.068a.303.303 0 0 1 .103.237zm-.105 0a.281.281 0 0 0-.019-.107.214.214 0 0 0-.054-.08.26.26 0 0 0-.085-.051.366.366 0 0 0-.222 0 .244.244 0 0 0-.085.051.203.203 0 0 0-.054.08.303.303 0 0 0 0 .214c.011.03.03.057.054.08a.242.242 0 0 0 .085.05c.072.023.15.023.222 0a.242.242 0 0 0 .085-.05.236.236 0 0 0 .054-.08.285.285 0 0 0 .019-.107zM14.461 11.782l.011.024.012-.024.013-.024.256-.398c.005-.007.01-.011.015-.012.007-.002.014-.002.021-.002h.076v.648h-.09v-.518l-.258.404c-.003.006-.009.011-.015.015s-.014.005-.022.005h-.015c-.008 0-.015-.002-.022-.005s-.012-.009-.015-.015l-.265-.406v.52h-.087v-.647h.076c.007 0 .014 0 .021.002s.011.007.014.012l.262.399c.005.007.01.015.013.023zM15.426 11.749v.243h-.1v-.647h.224a.48.48 0 0 1 .125.014.262.262 0 0 1 .088.04.177.177 0 0 1 .067.146.187.187 0 0 1-.073.148.272.272 0 0 1-.089.043.41.41 0 0 1-.121.015l-.121-.002zm0-.069h.121a.293.293 0 0 0 .078-.01.155.155 0 0 0 .056-.028c.015-.012.027-.027.034-.043s.012-.036.012-.054c.001-.018-.002-.036-.01-.053s-.02-.032-.035-.044a.218.218 0 0 0-.135-.035h-.121v.267zM16.775 11.993h-.079c-.008 0-.016-.002-.022-.006s-.01-.009-.013-.015l-.068-.157h-.343l-.071.157c-.003.006-.007.011-.013.015s-.014.007-.023.006h-.079l.301-.648h.104l.305.648zm-.497-.241h.283l-.119-.264a.449.449 0 0 1-.023-.061l-.012.034-.011.027-.118.263zM17.209 11.348a.044.044 0 0 1 .015.012l.439.488v-.503h.09v.648h-.05c-.007 0-.014-.001-.021-.004s-.012-.007-.016-.012l-.439-.488v.504h-.09v-.648h.053l.018.003zM18.493 11.735v.257h-.1v-.257l-.277-.39h.09c.008 0 .015.002.022.006s.01.009.013.015l.174.252.018.03.013.027.013-.028a.456.456 0 0 1 .017-.03l.171-.253c.003-.005.008-.01.013-.014s.014-.007.022-.006h.091l-.278.392zM14.411 10.258l.132.012c.677-.259 1.25-.682 1.647-1.218s.6-1.159.585-1.793l-.746-.638c.152.675.081 1.372-.205 2.014s-.775 1.204-1.413 1.622z"/><path d="m14.145 10.228.02.003c.682-.417 1.202-.999 1.492-1.67s.339-1.403.138-2.098l-1.063-.908c.43.747.603 1.582.499 2.409s-.481 1.612-1.086 2.264zM17.75 8.008c-.181.696-.619 1.324-1.251 1.791a3.916 3.916 0 0 1-.594.364c.514-.129.987-.357 1.381-.667s.701-.693.895-1.12l-.431-.368z"/><path d="m17.581 7.905-.614-.524c-.012.598-.211 1.182-.576 1.692s-.884.927-1.502 1.208h.003c.138 0 .275-.007.412-.021.578-.201 1.088-.522 1.485-.933s.669-.899.792-1.422zM14.234 5.172l-.732-.626c-.655.216-1.218.596-1.615 1.09s-.612 1.079-.614 1.679c.002.663.263 1.305.742 1.827s1.146.892 1.899 1.052c.672-.699 1.065-1.563 1.122-2.466s-.223-1.798-.802-2.556zM19.273 7.809c-.003-.786-.369-1.539-1.02-2.095s-1.532-.869-2.452-.871c-.425 0-.847.067-1.243.198l4.483 3.831c.153-.339.232-.699.232-1.062z"/></symbol><symbol id="icon-client-4" viewBox="0 0 31 16"><path d="M10.196 6.821h-.001c-.434 0-.785.317-.785.708 0 .391.352.708.785.708h.001c.434 0 .785-.317.785-.708 0-.391-.352-.708-.785-.708zM15.993 6.595c-.001-.543-.241-1.064-.667-1.448s-1.003-.6-1.606-.602c-.603.001-1.18.217-1.606.601s-.666.905-.667 1.448v2.995s4.546-.457 4.547-2.995zM7.818 10.574c.001.378.168.74.464 1.007s.698.418 1.117.419c.419-.001.821-.152 1.117-.419s.463-.629.465-1.007V8.49s-3.163.318-3.163 2.084zm1.582.373c-.082 0-.162-.022-.23-.063s-.121-.099-.153-.168-.04-.143-.024-.216c.016-.072.055-.139.113-.191s.132-.088.212-.102c.08-.014.164-.007.239.021s.14.076.186.138a.344.344 0 0 1-.051.472.452.452 0 0 1-.294.11v-.001zM12.293 10.275v.776h-.16v-.776h.16zm.308.332v.125h-.353v-.125h.353zm.038-.332v.125h-.39v-.125h.39zm.73.37v.037c0 .059-.008.112-.024.159s-.039.087-.068.12c-.029.033-.064.058-.104.075s-.085.026-.134.026-.093-.009-.134-.026-.075-.042-.104-.075c-.029-.033-.052-.073-.069-.12s-.024-.1-.024-.159v-.037c0-.059.008-.112.024-.159s.039-.087.068-.12a.3.3 0 0 1 .238-.102c.049 0 .094.009.134.026s.075.043.104.076c.029.033.052.073.068.12s.025.099.025.159zm-.162.037v-.038c0-.041-.004-.077-.011-.109s-.018-.058-.033-.079-.032-.037-.053-.048c-.021-.011-.045-.017-.072-.017s-.051.006-.072.017c-.021.011-.038.027-.053.048s-.025.048-.032.079a.495.495 0 0 0-.011.109v.038c0 .041.004.077.011.109s.018.058.033.079c.015.021.032.037.053.048s.045.017.072.017c.027 0 .051-.006.072-.017s.039-.027.053-.048c.014-.022.025-.048.032-.079s.011-.068.011-.109zm.68.166c0-.014-.002-.026-.006-.037s-.011-.022-.022-.031c-.011-.01-.026-.019-.046-.028s-.046-.019-.077-.029c-.035-.011-.069-.024-.1-.038s-.059-.031-.083-.05a.193.193 0 0 1-.076-.155.184.184 0 0 1 .081-.156c.026-.019.056-.034.091-.044a.423.423 0 0 1 .266.016.237.237 0 0 1 .099.085.217.217 0 0 1 .036.123h-.159c0-.023-.005-.043-.014-.06s-.023-.031-.043-.041a.152.152 0 0 0-.071-.015c-.028 0-.051.004-.069.013s-.032.019-.042.034a.084.084 0 0 0-.014.047c0 .013.003.025.01.036s.017.021.03.03.029.018.048.026a.712.712 0 0 0 .067.024c.042.013.079.027.111.043s.059.034.081.054c.022.02.038.042.049.068a.216.216 0 0 1-.003.177.186.186 0 0 1-.057.068c-.025.018-.055.032-.089.042s-.073.014-.116.014c-.038 0-.076-.005-.113-.015s-.071-.026-.102-.046a.228.228 0 0 1-.099-.192h.16c0 .024.004.045.011.061s.018.03.031.04c.014.01.03.018.049.022s.04.007.063.007c.028 0 .05-.004.068-.012s.031-.019.04-.033a.083.083 0 0 0 .013-.047zm.616-.573v.776h-.159v-.776h.159zm.238 0v.125h-.633v-.125h.633zm.612.651v.125h-.413v-.125h.413zm-.361-.651v.776h-.16v-.776h.16zm.307.316v.121h-.359v-.121h.359zm.053-.316v.125h-.412v-.125h.412zm.094 0h.289c.059 0 .11.009.153.027s.076.044.099.079.035.078.035.128c0 .042-.007.077-.021.107s-.034.054-.059.074a.301.301 0 0 1-.089.047l-.051.027h-.251l-.001-.125h.187c.028 0 .051-.005.07-.015s.032-.024.042-.042a.123.123 0 0 0 .014-.062c0-.025-.005-.046-.014-.064s-.023-.032-.042-.042-.042-.014-.071-.014h-.129v.65h-.16v-.776zm.434.776-.177-.346.169-.001.179.339v.007h-.171zm.838-.276h-.198v-.125h.198c.031 0 .055-.005.075-.015s.033-.025.042-.043c.009-.018.013-.039.013-.061s-.004-.045-.013-.064c-.009-.02-.023-.036-.042-.048s-.044-.018-.075-.018h-.142v.65h-.16v-.776h.302c.061 0 .113.011.156.033s.077.052.1.09c.023.038.035.082.035.132s-.012.093-.035.13c-.023.037-.056.065-.1.085s-.095.03-.156.03zm.922.151v.125h-.413v-.125h.413zm-.361-.651v.776h-.16v-.776h.16zm.307.316v.121h-.359v-.121h.359zm.053-.316v.125h-.412v-.125h.412zm.452 0v.776h-.159v-.776h.159zm.238 0v.125h-.633v-.125h.633zm.612.651v.125h-.413v-.125h.413zm-.361-.651v.776h-.16v-.776h.16zm.307.316v.121h-.359v-.121h.359zm.053-.316v.125h-.412v-.125h.412zm.094 0h.289c.059 0 .11.009.153.027s.076.044.099.079.035.078.035.128c0 .042-.007.077-.021.107s-.034.054-.059.074a.301.301 0 0 1-.089.047l-.051.027h-.251l-.001-.125h.187c.028 0 .051-.005.07-.015s.032-.024.042-.042a.123.123 0 0 0 .014-.062c0-.025-.005-.046-.014-.064s-.023-.032-.042-.042a.15.15 0 0 0-.071-.014h-.129v.65h-.16v-.776zm.434.776-.177-.346.169-.001.179.339v.007h-.171zm.669-.203c0-.014-.002-.026-.006-.037s-.011-.022-.022-.031c-.011-.01-.026-.019-.046-.028s-.046-.019-.077-.029c-.035-.011-.069-.024-.1-.038s-.059-.031-.083-.05c-.024-.019-.043-.041-.057-.067s-.02-.055-.02-.088a.184.184 0 0 1 .081-.156c.026-.019.056-.034.091-.044a.423.423 0 0 1 .266.016.237.237 0 0 1 .099.085.217.217 0 0 1 .036.123h-.159c0-.023-.005-.043-.014-.06s-.023-.031-.043-.041a.152.152 0 0 0-.071-.015c-.028 0-.051.004-.069.013s-.032.019-.041.034a.084.084 0 0 0-.014.047c0 .013.003.025.01.036s.017.021.03.03c.013.009.029.018.048.026s.041.016.067.024c.042.013.079.027.111.043s.059.034.081.054.038.042.049.068a.213.213 0 0 1 .016.086c0 .034-.007.064-.02.091s-.032.049-.057.068c-.025.018-.054.032-.089.042s-.073.014-.116.014c-.038 0-.076-.005-.113-.015s-.071-.026-.102-.046a.217.217 0 0 1-.1-.192h.16c0 .024.004.045.011.061s.018.03.031.04c.014.01.03.018.049.022s.04.007.063.007c.028 0 .051-.004.068-.012s.031-.019.04-.033a.083.083 0 0 0 .013-.047z"/></symbol><symbol id="icon-client-5" viewBox="0 0 31 16"><path d="M10.689 10.977c.045.05.068.112.067.176a.267.267 0 0 1-.104.222.485.485 0 0 1-.303.081h-.532v-1.115h.521a.484.484 0 0 1 .289.074c.034.025.06.057.078.094s.025.076.023.115a.235.235 0 0 1-.061.17.287.287 0 0 1-.159.087.313.313 0 0 1 .18.095zm-.623-.168h.223a.233.233 0 0 0 .142-.037c.017-.014.03-.031.038-.049s.012-.039.01-.059c.002-.02-.002-.04-.01-.059s-.021-.036-.037-.05a.24.24 0 0 0-.146-.038h-.219v.292zm.386.427a.134.134 0 0 0 .053-.113c.001-.022-.003-.043-.012-.063s-.024-.037-.042-.052a.25.25 0 0 0-.151-.04h-.234v.307h.237a.25.25 0 0 0 .149-.039zM11.754 11.456l-.29-.436h-.109v.436h-.249v-1.115h.472a.5.5 0 0 1 .329.095c.066.061.106.14.112.225s-.021.168-.077.237a.394.394 0 0 1-.225.113l.309.446h-.271zm-.398-.587h.204c.142 0 .212-.056.212-.169.001-.023-.002-.046-.011-.068s-.023-.041-.041-.058a.237.237 0 0 0-.16-.045h-.206l.002.339zM13.117 11.232h-.497l-.088.224h-.261l.456-1.102h.283l.454 1.102h-.261l-.086-.224zm-.067-.169-.182-.471-.182.471h.363zM14.822 11.456h-.247l-.555-.758v.758h-.247v-1.115h.247l.555.763v-.763h.247v1.115zM16.235 11.189a.513.513 0 0 1-.224.197.794.794 0 0 1-.348.07h-.44v-1.115h.44c.12-.003.24.021.348.069a.507.507 0 0 1 .224.194.596.596 0 0 1 0 .585zm-.284-.026c.071-.074.109-.168.109-.266s-.039-.192-.109-.266a.464.464 0 0 0-.31-.095h-.172v.722h.172a.465.465 0 0 0 .31-.095zM13.272 4.139s3.194 1.086 3.126 2.656v2.657s-3.192-1.086-3.125-2.657l-.001-2.656zM19.243 8.831a4.68 4.68 0 0 1 2.029-.673v-.832a4.095 4.095 0 0 0-2.029 1.505z"/><path d="M18.881 9.081c.494-.895 1.35-1.586 2.392-1.93V4.754S16.724 6.3 16.821 8.537v3.783s.203-.069.522-.199c0-.121 0-.243.015-.365.094-1.039.643-2.001 1.525-2.676z"/><path d="M18.448 10.487a3.57 3.57 0 0 1 .159-.775 3.473 3.473 0 0 0-.963 2.285c.258-.112.559-.251.875-.415a3.507 3.507 0 0 1-.071-1.095zM18.629 10.5c-.03.331-.011.665.056.992 1.243-.669 2.639-1.704 2.585-2.954v-.109a4.283 4.283 0 0 0-2.365.995 3.41 3.41 0 0 0-.277 1.076z"/></symbol><symbol id="icon-client-6" viewBox="0 0 31 16"><path d="M15.551 7.899a.535.535 0 0 1-.11-.362v-.525c0-.161.037-.283.11-.367s.199-.125.376-.125c.167 0 .286.036.356.107a.43.43 0 0 1 .105.314v.123h-.299v-.125a.621.621 0 0 0-.009-.122.116.116 0 0 0-.043-.073.17.17 0 0 0-.108-.028.18.18 0 0 0-.114.03.146.146 0 0 0-.05.08.567.567 0 0 0-.012.13v.637a.323.323 0 0 0 .038.179c.015.019.036.034.06.043s.051.013.077.01a.164.164 0 0 0 .106-.029.133.133 0 0 0 .045-.077.683.683 0 0 0 .009-.128v-.129h.299v.118a.484.484 0 0 1-.103.33c-.069.078-.186.117-.358.117s-.302-.042-.376-.128zM16.796 7.904c-.076-.082-.113-.201-.113-.358v-.552c0-.156.038-.274.113-.354s.202-.12.379-.12c.176 0 .301.04.377.12s.114.198.114.354v.552c0 .156-.038.276-.115.358s-.202.123-.376.123-.303-.042-.379-.123zm.518-.132a.311.311 0 0 0 .036-.163v-.676a.31.31 0 0 0-.035-.16c-.015-.019-.036-.035-.061-.044s-.052-.013-.079-.009c-.027-.003-.054 0-.079.009s-.046.025-.061.044a.292.292 0 0 0-.036.16v.679a.302.302 0 0 0 .036.163.196.196 0 0 0 .14.055.22.22 0 0 0 .077-.014.168.168 0 0 0 .063-.041v-.003zM18.025 6.536h.322l.242 1.019.248-1.019h.313l.032 1.471h-.232l-.025-1.022-.239 1.022H18.5l-.248-1.026-.023 1.026h-.234l.029-1.471zM19.542 6.536h.501c.289 0 .433.139.433.418 0 .267-.152.4-.456.4h-.171v.654h-.309l.002-1.471zm.429.628c.031.003.062.001.091-.007s.056-.021.079-.039a.244.244 0 0 0 .045-.166.435.435 0 0 0-.015-.134c-.005-.015-.012-.028-.023-.04s-.024-.022-.039-.03a.307.307 0 0 0-.138-.023h-.12v.44h.12zM20.923 6.536h.332l.341 1.471h-.289l-.067-.339h-.297l-.069.339h-.293l.341-1.471zm.284.961-.116-.617-.116.617h.231zM21.872 6.536h.217l.415.839v-.839h.257v1.471h-.206l-.417-.876v.876h-.265l.001-1.471zM23.362 7.446l-.345-.908h.29l.21.583.197-.583h.284l-.341.908v.561h-.297v-.561zM16.029 8.65v.077h-.253v.598h-.106v-.598h-.254V8.65h.612zM16.82 9.324h-.082c-.008 0-.016-.002-.023-.006s-.011-.009-.014-.015l-.073-.16h-.35l-.073.16a.042.042 0 0 1-.011.018.036.036 0 0 1-.023.006h-.082l.31-.675h.108l.313.672zm-.512-.25h.292l-.124-.275a.488.488 0 0 1-.023-.064.758.758 0 0 1-.012.036l-.011.028-.123.274zM17.354 9.258a.561.561 0 0 0 .058 0 .374.374 0 0 0 .095-.02c.015-.005.027-.011.041-.017v-.152h-.124l-.009-.001a.03.03 0 0 1-.008-.004c-.002-.002-.004-.003-.005-.006s-.002-.004-.001-.007v-.052h.24v.259a.454.454 0 0 1-.131.055.653.653 0 0 1-.167.018.485.485 0 0 1-.156-.025c-.046-.016-.088-.04-.124-.071s-.062-.067-.08-.107a.325.325 0 0 1-.028-.14.317.317 0 0 1 .108-.248.36.36 0 0 1 .124-.07.514.514 0 0 1 .252-.019.467.467 0 0 1 .136.044c.02.011.037.022.054.035l-.03.042c-.002.004-.006.007-.01.009l-.014.004a.038.038 0 0 1-.019-.005l-.03-.016a.3.3 0 0 0-.098-.033.516.516 0 0 0-.079-.006.366.366 0 0 0-.119.019c-.034.012-.065.03-.091.053s-.045.053-.058.084a.312.312 0 0 0 0 .225.261.261 0 0 0 .152.138.338.338 0 0 0 .123.013zM18.341 9.247h.338v.077h-.441v-.675h.106l-.003.598zM19.03 9.324h-.106v-.675h.106v.675zM19.424 8.653a.048.048 0 0 1 .016.012l.453.509v-.527h.092v.677h-.053c-.008.001-.016-.001-.023-.004s-.012-.008-.017-.013l-.452-.508v.525h-.089v-.675h.055c.006 0 .012.001.017.003zM20.764 8.65v.074h-.375v.223h.304v.072h-.304v.23h.375v.074h-.484V8.65h.484zM9.672 4.483l4.7 1.152v4.036l-4.7-1.151V4.484zm-.302-.344v4.576l5.303 1.3V5.439l-5.303-1.3z"/><path d="m12.212 12.139-5.303-1.301V6.262l5.303 1.3v4.576z"/><path d="m9.458 4.432 4.639 1.137-1.973 1.703-4.64-1.138 1.973-1.702zm-.088-.293L6.909 6.263l5.303 1.3 2.461-2.124-5.303-1.3zM12.511 11.882l2.162-1.866-2.162-.53v2.397z"/></symbol><symbol id="icon-facebook" viewBox="0 0 16 16"><path fill="#f4f4fd" d="M10.665 2.657h1.461V.113A18.755 18.755 0 0 0 9.998 0C7.892 0 6.449 1.325 6.449 3.759V6H4.125v2.844h2.324V16h2.849V8.845h2.23l.354-2.844H9.297V4.042c.001-.822.222-1.385 1.367-1.385z" style="fill:var(--color2, #f4f4fd)"/></symbol><symbol id="icon-instagram" viewBox="0 0 16 16"><path fill="#f4f4fd" d="M15.984 4.704c-.037-.85-.175-1.435-.372-1.941a3.904 3.904 0 0 0-.925-1.419 3.944 3.944 0 0 0-1.416-.922C12.762.225 12.18.088 11.33.05 10.473.009 10.202 0 8.029 0S5.585.009 4.731.047c-.85.037-1.435.175-1.941.372a3.904 3.904 0 0 0-1.419.925c-.406.4-.722.885-.922 1.416-.197.51-.334 1.091-.372 1.941-.041.856-.05 1.128-.05 3.301s.009 2.444.047 3.297c.037.85.175 1.435.372 1.941.203.538.519 1.019.925 1.419.4.406.885.722 1.416.922.51.197 1.091.334 1.941.372.853.038 1.125.047 3.298.047s2.444-.009 3.298-.047c.85-.037 1.435-.175 1.941-.372a4.095 4.095 0 0 0 2.341-2.341c.197-.509.334-1.091.372-1.941.038-.853.047-1.125.047-3.297s-.003-2.444-.041-3.298zm-1.441 6.532c-.034.781-.166 1.203-.275 1.485a2.655 2.655 0 0 1-1.519 1.519c-.281.109-.706.241-1.485.275-.844.038-1.097.047-3.232.047s-2.391-.009-3.232-.047c-.781-.034-1.203-.165-1.485-.275a2.453 2.453 0 0 1-.919-.597 2.477 2.477 0 0 1-.597-.919c-.109-.281-.241-.706-.275-1.485-.038-.844-.047-1.097-.047-3.232s.009-2.391.047-3.232c.034-.781.166-1.203.275-1.485.128-.347.331-.663.6-.919.259-.266.572-.469.919-.597.281-.109.706-.241 1.485-.275.844-.037 1.097-.047 3.232-.047 2.138 0 2.391.009 3.232.047.781.034 1.203.166 1.485.275.347.128.663.331.919.597.266.259.469.572.597.919.109.281.241.706.275 1.485.037.844.047 1.097.047 3.232s-.009 2.385-.047 3.229z" style="fill:var(--color2, #f4f4fd)"/><path fill="#f4f4fd" d="M8.03 3.891a4.111 4.111 0 0 0 0 8.22 4.111 4.111 0 0 0 0-8.22zm0 6.777a2.667 2.667 0 1 1 .001-5.333 2.667 2.667 0 0 1-.001 5.333zM13.262 3.729a.96.96 0 1 1-1.92 0 .96.96 0 0 1 1.92 0z" style="fill:var(--color2, #f4f4fd)"/></symbol><symbol id="icon-linkedin" viewBox="0 0 16 16"><path fill="#f4f4fd" d="M15.996 16v-.001H16v-5.868c0-2.871-.618-5.082-3.974-5.082-1.613 0-2.696.885-3.138 1.725h-.047V5.317H5.659v10.682h3.313V10.71c0-1.393.264-2.739 1.989-2.739 1.699 0 1.725 1.589 1.725 2.829v5.201h3.31zM.264 5.318h3.317V16H.264V5.318zM1.921 0C.86 0 0 .861 0 1.921S.861 3.86 1.921 3.86c1.061 0 1.921-.879 1.921-1.939S2.981 0 1.921 0z" style="fill:var(--color2, #f4f4fd)"/></symbol><symbol id="icon-twitter" viewBox="0 0 16 16"><path fill="#f4f4fd" d="M16 3.039a6.839 6.839 0 0 1-1.89.518 3.262 3.262 0 0 0 1.443-1.813 6.555 6.555 0 0 1-2.08.794 3.28 3.28 0 0 0-5.674 2.243c0 .26.022.51.076.748a9.284 9.284 0 0 1-6.761-3.431 3.285 3.285 0 0 0 1.008 4.384A3.24 3.24 0 0 1 .64 6.078v.036a3.295 3.295 0 0 0 2.628 3.223 3.274 3.274 0 0 1-.86.108 2.9 2.9 0 0 1-.621-.056 3.311 3.311 0 0 0 3.065 2.285 6.59 6.59 0 0 1-4.067 1.399c-.269 0-.527-.012-.785-.045A9.234 9.234 0 0 0 5.032 14.5c6.036 0 9.336-5 9.336-9.334 0-.145-.005-.285-.012-.424A6.544 6.544 0 0 0 16 3.039z" style="fill:var(--color2, #f4f4fd)"/>
<symbol id="icon-diligence" viewBox="0 0 41 32">
<path d="M2.047 31.732h32.751c1.13 0 2.047-0.916 2.047-2.047v-2.729c0-1.13-0.917-2.047-2.047-2.047h-0.682v-17.015l3.876-3.671c0.9 0.443 1.988 0.174 2.577-0.638s0.506-1.931-0.195-2.648-1.818-0.824-2.643-0.253c-0.825 0.571-1.118 1.653-0.694 2.563l-2.92 2.768v-1.574c0-1.13-0.916-2.047-2.047-2.047h-27.292c-1.13 0-2.047 0.917-2.047 2.047v20.469h-0.682c-1.13 0-2.047 0.916-2.047 2.047v2.729c0 1.13 0.917 2.047 2.047 2.047zM38.892 1.711c0.377 0 0.682 0.305 0.682 0.682s-0.306 0.682-0.682 0.682c-0.377 0-0.682-0.305-0.682-0.682s0.305-0.682 0.682-0.682zM4.094 4.44c0-0.377 0.306-0.682 0.682-0.682h27.292c0.377 0 0.682 0.306 0.682 0.682v2.865l-1.365 1.297v-2.798c0-0.377-0.306-0.682-0.682-0.682h-24.563c-0.377 0-0.682 0.306-0.682 0.682v17.058c0 0.377 0.306 0.682 0.682 0.682h24.563c0.377 0 0.682-0.305 0.682-0.682v-12.383l1.365-1.293v15.723h-28.657v-20.469zM10.235 13.31c-0.923-0.003-1.734 0.612-1.979 1.502s0.135 1.834 0.928 2.305c0.794 0.471 1.805 0.353 2.468-0.289l2.372 1.19c0.276 0.138 0.61 0.073 0.815-0.157l5.042-5.672 4.956 3.714c0.266 0.199 0.637 0.178 0.878-0.050l4.307-4.080v10.408h-23.199v-15.693h23.199v3.405l-4.828 4.572-4.998-3.747c-0.284-0.213-0.683-0.173-0.919 0.092l-5.111 5.751-1.911-0.956c0.014-0.082 0.023-0.165 0.026-0.248 0-1.13-0.917-2.047-2.047-2.047zM10.917 15.357c0 0.377-0.305 0.682-0.682 0.682s-0.682-0.306-0.682-0.682c0-0.377 0.306-0.682 0.682-0.682s0.682 0.306 0.682 0.682zM15.011 26.274h6.823v0.682c0 0.377-0.306 0.682-0.682 0.682h-5.459c-0.377 0-0.682-0.306-0.682-0.682v-0.682zM1.365 26.956c0-0.377 0.306-0.682 0.682-0.682h11.599v0.682c0 1.13 0.916 2.047 2.047 2.047h5.459c1.13 0 2.047-0.916 2.047-2.047v-0.682h11.599c0.377 0 0.682 0.305 0.682 0.682v2.729c0 0.377-0.305 0.682-0.682 0.682h-32.751c-0.377 0-0.682-0.305-0.682-0.682v-2.729z"></path>
</symbol>
<symbol id="icon-punctuality" viewBox="0 0 31 32">
<path d="M30.797 15.301c-0.002-8.452-6.855-15.303-15.308-15.301s-15.303 6.855-15.301 15.308c0.001 6.658 4.307 12.551 10.649 14.576 0.061 0.019 0.124 0.029 0.187 0.029 0.121-0 0.239-0.032 0.342-0.094 0.135-0.080 0.236-0.207 0.283-0.356l3.865-12.25c1.057-0.005 1.909-0.866 1.903-1.923s-0.866-1.909-1.923-1.903c-0.284 0.001-0.565 0.067-0.82 0.191l-5.106-5.107c-0.253-0.245-0.657-0.238-0.902 0.016-0.239 0.247-0.239 0.639 0 0.886l5.103 5.109c-0.392 0.799-0.168 1.764 0.536 2.309l-3.683 11.673c-7.278-2.681-11.004-10.754-8.323-18.032s10.754-11.004 18.032-8.323c7.278 2.681 11.004 10.754 8.323 18.032-1.31 3.556-4.001 6.431-7.462 7.973l-0.398-1.874c-0.073-0.345-0.411-0.565-0.756-0.492-0.109 0.023-0.209 0.074-0.293 0.148l-3.837 3.426c-0.263 0.234-0.287 0.637-0.052 0.9 0.076 0.085 0.174 0.149 0.283 0.184l4.899 1.564c0.335 0.108 0.694-0.077 0.802-0.412 0.034-0.106 0.040-0.219 0.017-0.328l-0.391-1.839c5.664-2.388 9.342-7.942 9.329-14.089zM15.492 14.664c0.352 0 0.638 0.286 0.638 0.638s-0.286 0.638-0.638 0.638c-0.352 0-0.638-0.285-0.638-0.638s0.285-0.638 0.638-0.638zM17.593 29.528l2.184-1.948 0.603 2.84-2.787-0.892z"></path>
</symbol>
<symbol id="icon-strategy" viewBox="0 0 32 32">
<path fill="#2e2f42" style="fill: var(--color1, #2e2f42)" d="M30.773 22.098l-8.443-8.505 0.937-4.615c0.242 0.094 0.499 0.144 0.758 0.146h0.006c1.192 0.014 2.17-0.941 2.184-2.133s-0.941-2.17-2.133-2.184c-1.192-0.014-2.17 0.941-2.184 2.133-0.003 0.255 0.039 0.509 0.125 0.749l-4.96 0.605-8.091-8.133c-0.099-0.101-0.235-0.159-0.377-0.16-0.14 0.001-0.274 0.056-0.373 0.155l-1.513 1.504c-0.208 0.208-0.208 0.546 0 0.754l0.814 0.826c-3.153 5.798-2.129 12.978 2.519 17.663 0.043 0.041 0.092 0.074 0.146 0.098-0.034 0.18-0.051 0.364-0.052 0.547v6.187h-6.4c-1.472 0.002-2.665 1.195-2.667 2.667v1.067c0 0.295 0.239 0.533 0.533 0.533h24.533c0.295 0 0.533-0.239 0.533-0.533v-1.067c-0.002-1.472-1.195-2.665-2.667-2.667h-6.4v-2.742c1.003 0.21 2.024 0.317 3.049 0.32 2.458-0.003 4.877-0.615 7.040-1.783l0.818 0.823c0.099 0.101 0.235 0.159 0.377 0.16 0.14-0.001 0.274-0.056 0.373-0.155l1.513-1.504c0.208-0.208 0.208-0.546 0-0.754zM23.28 6.233c0.418-0.415 1.093-0.414 1.509 0.004s0.414 1.093-0.004 1.508c-0.2 0.199-0.47 0.31-0.752 0.31h-0.003c-0.589-0.003-1.064-0.483-1.061-1.072 0.002-0.282 0.115-0.552 0.314-0.751h-0.002zM22.024 9.738l-0.598 2.946-1.175-1.182 1.774-1.763zM21.419 8.836l-1.92 1.909-1.485-1.493 3.405-0.415zM24.004 28.8c0.884 0 1.6 0.716 1.6 1.6v0.533h-23.467v-0.533c0-0.884 0.716-1.6 1.6-1.6h20.267zM16.537 26.667v1.067h-5.333v-1.067h5.333zM11.204 25.6v-4.053c0-1.294 1.196-2.347 2.667-2.347s2.667 1.053 2.667 2.347v4.053h-5.333zM17.604 23.904v-2.357c0-1.882-1.675-3.413-3.733-3.413-1.331-0.020-2.576 0.657-3.281 1.786-4.058-4.274-4.971-10.645-2.279-15.887l18.602 18.708c-2.872 1.461-6.165 1.873-9.309 1.163zM28.893 23.22l-21.057-21.181 0.755-0.752 7.935 7.98c0.004 0 0.006 0.007 0.010 0.010l13.115 13.191-0.757 0.752z"></path>
<path fill="#4d5ae5" style="fill: var(--color2, #4d5ae5)" d="M13.876 20.267h-0.005c-0.884-0.001-1.601 0.714-1.602 1.598s0.714 1.601 1.598 1.602h0.005c0.884 0.001 1.601-0.714 1.602-1.598s-0.714-1.601-1.598-1.602zM14.249 22.245c-0.1 0.1-0.236 0.156-0.378 0.155-0.295-0.002-0.532-0.242-0.531-0.536 0.001-0.141 0.057-0.276 0.157-0.375s0.233-0.154 0.373-0.155c0.295 0.002 0.532 0.242 0.531 0.536-0.001 0.141-0.057 0.276-0.157 0.375h0.005z"></path>
</symbol>
<symbol id="icon-technology" viewBox="0 0 32 32">
<path fill="#4d5ae5" style="fill: var(--color2, #4d5ae5)" d="M31.974 4.524c-0.063-0.193-0.229-0.333-0.43-0.363l-1.91-0.278-0.855-1.731c-0.179-0.365-0.777-0.365-0.956 0l-0.855 1.731-1.91 0.278c-0.201 0.029-0.367 0.17-0.431 0.363-0.062 0.193-0.011 0.405 0.135 0.547l1.383 1.348-0.326 1.903c-0.034 0.2 0.048 0.402 0.212 0.522 0.166 0.121 0.382 0.135 0.562 0.040l1.709-0.899 1.709 0.899c0.078 0.041 0.164 0.061 0.249 0.061 0.11 0 0.221-0.034 0.314-0.102 0.164-0.119 0.246-0.322 0.212-0.522l-0.326-1.903 1.383-1.348c0.145-0.142 0.197-0.354 0.135-0.547zM29.511 5.851c-0.125 0.122-0.183 0.299-0.153 0.472l0.191 1.114-1-0.526c-0.078-0.041-0.163-0.061-0.249-0.061s-0.17 0.020-0.249 0.061l-1.001 0.526 0.191-1.114c0.030-0.173-0.028-0.349-0.153-0.472l-0.81-0.789 1.119-0.163c0.174-0.025 0.324-0.134 0.402-0.292l0.5-1.013 0.5 1.013c0.078 0.157 0.228 0.267 0.402 0.292l1.119 0.163-0.809 0.789z"></path>
<path fill="#4d5ae5" style="fill: var(--color2, #4d5ae5)" d="M26.134 20.522h-1.067v1.067h1.067v-1.067z"></path>
<path fill="#4d5ae5" style="fill: var(--color2, #4d5ae5)" d="M26.134 22.656h-1.067v1.067h1.067v-1.067z"></path>
<path fill="#4d5ae5" style="fill: var(--color2, #4d5ae5)" d="M27.2 21.589h-1.067v1.067h1.067v-1.067z"></path>
<path fill="#4d5ae5" style="fill: var(--color2, #4d5ae5)" d="M25.067 21.589h-1.067v1.067h1.067v-1.067z"></path>
<path fill="#4d5ae5" style="fill: var(--color2, #4d5ae5)" d="M22.4 26.389h-1.067v1.067h1.067v-1.067z"></path>
<path fill="#4d5ae5" style="fill: var(--color2, #4d5ae5)" d="M22.4 28.522h-1.067v1.067h1.067v-1.067z"></path>
<path fill="#4d5ae5" style="fill: var(--color2, #4d5ae5)" d="M23.467 27.456h-1.067v1.067h1.067v-1.067z"></path>
<path fill="#4d5ae5" style="fill: var(--color2, #4d5ae5)" d="M21.333 27.456h-1.067v1.067h1.067v-1.067z"></path>
<path fill="#4d5ae5" style="fill: var(--color2, #4d5ae5)" d="M16 24.256h-1.067v1.067h1.067v-1.067z"></path>
<path fill="#4d5ae5" style="fill: var(--color2, #4d5ae5)" d="M16 26.389h-1.067v1.067h1.067v-1.067z"></path>
<path fill="#4d5ae5" style="fill: var(--color2, #4d5ae5)" d="M17.067 25.322h-1.067v1.067h1.067v-1.067z"></path>
<path fill="#4d5ae5" style="fill: var(--color2, #4d5ae5)" d="M14.933 25.322h-1.067v1.067h1.067v-1.067z"></path>
<path fill="#4d5ae5" style="fill: var(--color2, #4d5ae5)" d="M5.867 6.122h-1.067v1.067h1.067v-1.067z"></path>
<path fill="#4d5ae5" style="fill: var(--color2, #4d5ae5)" d="M5.867 8.255h-1.067v1.067h1.067v-1.067z"></path>
<path fill="#4d5ae5" style="fill: var(--color2, #4d5ae5)" d="M6.933 7.189h-1.067v1.067h1.067v-1.067z"></path>
<path fill="#4d5ae5" style="fill: var(--color2, #4d5ae5)" d="M4.8 7.189h-1.067v1.067h1.067v-1.067z"></path>
<path fill="#2e2f42" style="fill: var(--color1, #2e2f42)" d="M24.715 14.159c-0.287-0.388-0.709-0.637-1.188-0.705-0.481-0.068-0.956 0.058-1.34 0.352l-1.252 0.96-1.898 1.417-1.358-0.541c2.421-1.086 4.114-3.508 4.114-6.32 0-3.823-3.123-6.933-6.961-6.933s-6.961 3.11-6.961 6.933c0 1.386 0.414 2.674 1.12 3.758l-2.764-0.024c-0.002 0-0.003 0-0.005 0-0.009 0-0.015 0.004-0.023 0.005-0.053 0.002-0.105 0.013-0.155 0.031-0.013 0.005-0.026 0.008-0.038 0.013-0.006 0.003-0.013 0.003-0.019 0.006l-3.233 1.596c-0.001 0-0.001 0-0.001 0.001l-1.893 0.911c-0.021 0.009-0.042 0.021-0.063 0.035-0.755 0.502-1.012 1.489-0.598 2.295 0.22 0.429 0.595 0.745 1.056 0.889 0.178 0.055 0.359 0.083 0.539 0.083 0.29 0 0.577-0.071 0.839-0.211l1.388-0.738 2.264-1.169 1.357-0.008-5.442 5.416c-0.001 0.001-0.001 0.001-0.002 0.001l-1.339 1.333c-0.316 0.315-0.49 0.732-0.49 1.178s0.174 0.863 0.49 1.179c0.325 0.323 0.752 0.485 1.179 0.485s0.854-0.162 1.18-0.485l1.314-1.309 1.741-1.3 0.901 0.897-1.762 1.754c-0 0.001-0.001 0.001-0.002 0.001l-1.339 1.333c-0.316 0.315-0.49 0.732-0.49 1.178s0.174 0.863 0.49 1.179c0.325 0.323 0.753 0.485 1.18 0.485s0.855-0.162 1.18-0.485l3.482-3.467c0.001-0.001 0.001-0.001 0.001-0.002l1.010-1-0.004-0.004c0.006-0.006 0.015-0.009 0.022-0.015l5.166-5.658 3.471 0.494c0.025 0.004 0.050 0.005 0.075 0.005 0.065 0 0.127-0.015 0.187-0.038 0.018-0.006 0.033-0.015 0.050-0.023 0.019-0.010 0.039-0.015 0.058-0.027l3.213-2.133c0.012-0.008 0.018-0.021 0.029-0.029 0.013-0.010 0.029-0.014 0.041-0.026l1.271-1.191c0.662-0.62 0.753-1.635 0.212-2.362zM2.13 17.77c-0.173 0.093-0.37 0.111-0.558 0.052-0.187-0.058-0.338-0.186-0.427-0.358-0.161-0.314-0.068-0.695 0.214-0.902l1.314-0.632 0.449 1.313-0.992 0.527zM5.628 15.942l-1.548 0.8-0.439-1.283 2.027-1.001-0.040 1.484zM20.727 9.322c0 0.918-0.219 1.785-0.599 2.559l-4.181-1.899c-0.044-0.573-0.341-1.075-0.788-1.388l1.464-4.86c2.378 0.756 4.105 2.974 4.105 5.588zM8.938 9.322c0-3.235 2.644-5.867 5.894-5.867 0.253 0 0.5 0.021 0.745 0.052l-1.432 4.754c-0.019-0.001-0.037-0.006-0.057-0.006-1.033 0-1.873 0.837-1.873 1.867s0.84 1.867 1.873 1.867c0.694 0 1.294-0.383 1.618-0.945l3.862 1.755c-1.075 1.446-2.795 2.39-4.737 2.39-3.25 0-5.894-2.632-5.894-5.867zM14.894 10.122c0 0.441-0.362 0.8-0.806 0.8s-0.806-0.359-0.806-0.8c0-0.441 0.362-0.8 0.806-0.8s0.806 0.359 0.806 0.8zM2.465 25.146c-0.236 0.234-0.619 0.234-0.854 0.001-0.114-0.114-0.176-0.263-0.176-0.423s0.062-0.309 0.176-0.421l0.962-0.958 0.851 0.848-0.959 0.955zM5.679 28.88c-0.236 0.234-0.619 0.235-0.855 0.001-0.114-0.114-0.176-0.263-0.176-0.423s0.062-0.309 0.176-0.421l0.963-0.959 0.852 0.848-0.96 0.955zM9.16 25.411c-0.001 0-0.001 0-0.002 0.001l-1.765 1.76-0.852-0.848 1.763-1.755c0 0 0 0 0-0s0.001-0.001 0.002-0.001c0.040-0.040 0.065-0.088 0.090-0.135 0.007-0.014 0.020-0.026 0.026-0.040 0.017-0.041 0.019-0.085 0.026-0.129 0.003-0.025 0.014-0.047 0.014-0.073 0-0.036-0.013-0.070-0.020-0.106-0.006-0.032-0.006-0.065-0.019-0.095-0.020-0.050-0.055-0.094-0.091-0.138-0.010-0.012-0.014-0.027-0.025-0.038 0 0 0 0-0.001 0s-0.001-0.002-0.001-0.002l-1.607-1.6c-0.017-0.017-0.039-0.024-0.058-0.038-0.028-0.022-0.055-0.042-0.087-0.058-0.030-0.015-0.061-0.024-0.093-0.033-0.034-0.010-0.067-0.017-0.103-0.020-0.033-0.002-0.063 0.001-0.095 0.005-0.036 0.004-0.069 0.009-0.104 0.020-0.034 0.011-0.063 0.027-0.094 0.045-0.020 0.011-0.042 0.015-0.061 0.029l-1.773 1.324-0.901-0.897 2.399-2.386 4.361 4.289-0.928 0.919zM15.979 18.394c-0.015-0.002-0.030 0.004-0.045 0.003-0.039-0.002-0.076 0.001-0.115 0.007-0.030 0.005-0.059 0.011-0.088 0.021-0.034 0.012-0.065 0.028-0.097 0.047-0.030 0.018-0.057 0.037-0.083 0.061-0.013 0.011-0.028 0.017-0.040 0.029l-4.698 5.146-4.328-4.257 2.833-2.818c0.209-0.208 0.21-0.546 0.002-0.755-0.105-0.105-0.243-0.157-0.381-0.156v-0.001l-2.219 0.013 0.028-1.607 3.104 0.027c1.265 1.294 3.029 2.101 4.981 2.101 0.437 0 0.864-0.045 1.279-0.123 0.040 0.032 0.079 0.065 0.13 0.085l2.41 0.96 0.152 0.758 0.178 0.885-3.003-0.427zM20.020 18.572l-0.313-1.558 1.446-1.080 0.947 1.257-2.080 1.381zM23.774 15.741l-0.838 0.785-0.931-1.236 0.831-0.637c0.155-0.119 0.351-0.168 0.543-0.143 0.193 0.027 0.364 0.128 0.48 0.284 0.217 0.292 0.18 0.699-0.085 0.947z"></path>
<path fill="#2e2f42" style="fill: var(--color1, #2e2f42)" d="M13.602 18.544l-2.143-2.133c-0.207-0.207-0.545-0.207-0.753 0l-2.142 2.133c-0.1 0.101-0.157 0.236-0.157 0.378s0.056 0.278 0.157 0.378l2.142 2.133c0.104 0.103 0.241 0.155 0.377 0.155s0.273-0.052 0.376-0.155l2.143-2.133c0.1-0.1 0.157-0.236 0.157-0.378s-0.057-0.278-0.157-0.378zM11.083 20.303l-1.387-1.381 1.387-1.381 1.387 1.381-1.387 1.381z"></path>
<path fill="#2e2f42" style="fill: var(--color1, #2e2f42)" d="M17.164 5.071l-0.258 1.036c0.071 0.018 1.738 0.452 1.738 2.149h1.067c-0-2.017-1.666-2.965-2.547-3.185z"></path>
<path fill="#2e2f42" style="fill: var(--color1, #2e2f42)" d="M19.711 9.322h-1.067v1.067h1.067v-1.067z"></path>



</symbol>

<svg xmlns="http://www.w3.org/2000/svg" aria-hidden="true" style="position:absolute;width:0;height:0;overflow:hidden"><defs><symbol id="icon-close" viewBox="0 0 8 8"><path d="M8 .806 7.194 0 4 3.194.806 0 0 .806 3.194 4 0 7.194.806 8 4 4.806 7.194 8 8 7.194 4.806 4 8 .806z"/></symbol></defs></svg>

<svg aria-hidden="true" style="position: absolute; width: 0; height: 0; overflow: hidden;" version="1.1" xmlns="http://www.w3.org/2000/svg" xmlns:xlink="http://www.w3.org/1999/xlink">
<defs>

<symbol id="icon-contact" viewBox="0 0 32 32">
<path  d="M16 16c2.947 0 5.333-2.387 5.333-5.333s-2.387-5.333-5.333-5.333c-2.947 0-5.333 2.387-5.333 5.333s2.387 5.333 5.333 5.333zM16 18.667c-3.56 0-10.667 1.787-10.667 5.333v1.333c0 0.733 0.6 1.333 1.333 1.333h18.667c0.733 0 1.333-0.6 1.333-1.333v-1.333c0-3.547-7.107-5.333-10.667-5.333z"></path>
</symbol>
<symbol id="icon-email" viewBox="0 0 24 32">
<path d="M20 8h-16c-1.1 0-1.99 0.9-1.99 2l-0.010 12c0 1.1 0.9 2 2 2h16c1.1 0 2-0.9 2-2v-12c0-1.1-0.9-2-2-2zM19.6 12.25l-7.070 4.42c-0.32 0.2-0.74 0.2-1.060 0l-7.070-4.42c-0.25-0.16-0.4-0.43-0.4-0.72 0-0.67 0.73-1.070 1.3-0.72l6.7 4.19 6.7-4.19c0.57-0.35 1.3 0.050 1.3 0.72 0 0.29-0.15 0.56-0.4 0.72z"></path>
</symbol>
<symbol id="icon-phone" viewBox="0 0 24 32">
<path d="M19.635 18.487l-2.451-0.28c-0.589-0.067-1.167 0.135-1.582 0.55l-1.775 1.775c-2.731-1.389-4.969-3.618-6.359-6.359l1.785-1.785c0.415-0.415 0.618-0.994 0.55-1.582l-0.28-2.432c-0.116-0.975-0.936-1.708-1.92-1.708h-1.669c-1.090 0-1.997 0.907-1.93 1.997 0.511 8.24 7.102 14.821 15.332 15.332 1.090 0.068 1.997-0.839 1.997-1.93v-1.669c0.010-0.975-0.724-1.795-1.698-1.911v0z"></path>
</symbol>
</defs>
</svg>

<svg xmlns="http://www.w3.org/2000/svg" aria-hidden="true" style="position:absolute;width:0;height:0;overflow:hidden"><defs><symbol id="icon-subscribe" viewBox="0 0 24 24"><path  d="M24 2 0 13.25l7.67 2.367L19.5 6.375l-8.998 10.116.007.002-.009-.002V22l4.301-4.182L20.25 19.5 24 2z" /></symbol></defs></svg>

<svg aria-hidden="true" style="position: absolute; width: 0; height: 0; overflow: hidden;" version="1.1" xmlns="http://www.w3.org/2000/svg" xmlns:xlink="http://www.w3.org/1999/xlink">
<defs>
<symbol id="icon-noactive-click" viewBox="0 0 16 16">
<path  d="M11.461 4.489c0.164-0.144 0.383-0.224 0.61-0.223s0.444 0.084 0.606 0.231c0.162 0.147 0.256 0.346 0.262 0.555s-0.076 0.413-0.23 0.567l-4.655 5.374c-0.080 0.080-0.177 0.143-0.284 0.188s-0.223 0.068-0.341 0.070c-0.118 0.002-0.234-0.018-0.344-0.059s-0.208-0.101-0.291-0.178l-3.087-2.85c-0.086-0.074-0.155-0.163-0.203-0.262s-0.074-0.206-0.076-0.314c-0.002-0.108 0.020-0.216 0.064-0.317s0.11-0.192 0.193-0.269c0.083-0.077 0.182-0.137 0.291-0.178s0.226-0.061 0.343-0.059c0.117 0.002 0.233 0.026 0.341 0.070s0.204 0.108 0.284 0.187l2.443 2.254 4.052-4.765c0.007-0.008 0.015-0.016 0.023-0.024h-0.001z"></path>
<path fill="none" stroke="#2e2f42" style="stroke: var(--color2, #2e2f42)" stroke-linejoin="miter" stroke-linecap="butt" stroke-miterlimit="4" stroke-width="1.25" d="M2 0.625h12c0.759 0 1.375 0.616 1.375 1.375v12c0 0.759-0.616 1.375-1.375 1.375h-12c-0.759 0-1.375-0.616-1.375-1.375v-12c0-0.759 0.616-1.375 1.375-1.375z"></path>
</symbol>
</defs>
</svg>

<svg aria-hidden="true" style="position: absolute; width: 0; height: 0; overflow: hidden;" version="1.1" xmlns="http://www.w3.org/2000/svg" xmlns:xlink="http://www.w3.org/1999/xlink">
<defs>
<symbol id="icon-icon-send" viewBox="0 0 38 32">
<path  d="M38.4 0l-38.4 18 12.272 3.788 18.928-14.788-14.397 16.186 0.012 0.004-0.014-0.004v8.814l6.882-6.691 8.718 2.691 6-28z"></path>
</symbol>
</defs>
</svg>

<svg aria-hidden="true" style="position: absolute; width: 0; height: 0; overflow: hidden;" version="1.1" xmlns="http://www.w3.org/2000/svg" xmlns:xlink="http://www.w3.org/1999/xlink">
<defs>
<symbol id="icon-subscribe" viewBox="0 0 24 24">
<path  d="M24 2l-24 11.25 7.67 2.367 11.83-9.242-8.998 10.116 0.007 0.002-0.009-0.002v5.509l4.301-4.182 5.449 1.682 3.75-17.5z"></path>
</symbol>
</defs>
</svg>

</defs></svg>


